<svg width="338" height="99" viewBox="0 0 338 99" fill="none" xmlns="http://www.w3.org/2000/svg">
<path d="M56.904 89H54.12C53.48 89 53.16 88.616 53.16 87.848V28.424C53.16 27.656 53.48 27.272 54.12 27.272H83.688C84.456 27.272 84.84 27.624 84.84 28.328V30.536C84.84 31.24 84.456 31.592 83.688 31.592H58.92C58.28 31.592 57.96 31.88 57.96 32.456V55.784C57.96 56.296 58.28 56.552 58.92 56.552H81.096C81.8 56.552 82.152 56.904 82.152 57.608V59.912C82.152 60.616 81.8 60.968 81.096 60.968H58.92C58.28 60.968 57.96 61.224 57.96 61.736V87.848C57.96 88.616 57.608 89 56.904 89ZM100.967 89H98.1825C97.5425 89 97.2225 88.616 97.2225 87.848V28.424C97.2225 27.656 97.5425 27.272 98.1825 27.272H120.071C124.231 27.272 127.527 28.488 129.959 30.92C132.391 33.352 133.607 36.68 133.607 40.904V50.024C133.607 53.608 132.679 56.552 130.823 58.856C129.031 61.16 126.567 62.632 123.431 63.272V63.656L134.855 87.848C135.239 88.616 135.015 89 134.183 89H131.207C130.375 89 129.799 88.616 129.479 87.848L118.151 63.656H102.983C102.343 63.656 102.023 63.944 102.023 64.52V87.848C102.023 88.616 101.671 89 100.967 89ZM102.983 59.528H119.591C122.535 59.528 124.807 58.728 126.407 57.128C128.007 55.464 128.807 53.128 128.807 50.12V41.096C128.807 38.088 128.007 35.752 126.407 34.088C124.807 32.424 122.535 31.592 119.591 31.592H102.983C102.343 31.592 102.023 31.88 102.023 32.456V58.664C102.023 59.24 102.343 59.528 102.983 59.528ZM146.872 89H143.896C143.192 89 142.968 88.616 143.224 87.848L162.328 28.424C162.52 27.656 162.968 27.272 163.672 27.272H168.184C168.824 27.272 169.272 27.656 169.528 28.424L188.632 87.848C188.824 88.616 188.6 89 187.96 89H184.888C184.248 89 183.832 88.616 183.64 87.848L178.456 72.488H153.304L148.12 87.848C147.864 88.616 147.448 89 146.872 89ZM165.688 32.552L154.648 68.168H177.208L166.072 32.552H165.688ZM222.635 89H212.171C208.011 89 204.715 87.784 202.283 85.352C199.915 82.92 198.731 79.592 198.731 75.368V40.904C198.731 36.68 199.915 33.352 202.283 30.92C204.715 28.488 208.011 27.272 212.171 27.272H222.635C226.795 27.272 230.091 28.488 232.523 30.92C234.955 33.352 236.171 36.68 236.171 40.904V45.224C236.171 45.992 235.819 46.376 235.115 46.376H232.331C231.627 46.376 231.275 45.992 231.275 45.224V41.096C231.275 38.024 230.507 35.688 228.971 34.088C227.435 32.424 225.195 31.592 222.251 31.592H212.555C209.611 31.592 207.371 32.424 205.835 34.088C204.299 35.752 203.531 38.088 203.531 41.096V75.176C203.531 78.184 204.299 80.52 205.835 82.184C207.371 83.848 209.611 84.68 212.555 84.68H222.251C225.195 84.68 227.435 83.88 228.971 82.28C230.507 80.616 231.275 78.248 231.275 75.176V62.504C231.275 61.928 230.987 61.64 230.411 61.64H219.371C218.667 61.64 218.315 61.288 218.315 60.584V58.376C218.315 57.672 218.667 57.32 219.371 57.32H234.347C235.563 57.32 236.171 57.96 236.171 59.24V75.368C236.171 79.592 234.955 82.92 232.523 85.352C230.091 87.784 226.795 89 222.635 89Z" fill="#496AD5"/>
<path d="M250.721 89H248.981C248.581 89 248.381 88.76 248.381 88.28V51.14C248.381 50.66 248.581 50.42 248.981 50.42H250.601C250.961 50.42 251.201 50.54 251.321 50.78L269.741 82.46H269.981V51.14C269.981 50.66 270.201 50.42 270.641 50.42H272.321C272.761 50.42 272.981 50.66 272.981 51.14V88.28C272.981 88.76 272.761 89 272.321 89H270.941C270.581 89 270.261 88.78 269.981 88.34L251.621 56.9H251.381V88.28C251.381 88.76 251.161 89 250.721 89ZM302.267 89H283.727C283.327 89 283.127 88.76 283.127 88.28V51.14C283.127 50.66 283.327 50.42 283.727 50.42H302.267C302.747 50.42 302.987 50.64 302.987 51.08V52.46C302.987 52.9 302.747 53.12 302.267 53.12H286.727C286.327 53.12 286.127 53.3 286.127 53.66V67.46C286.127 67.82 286.327 68 286.727 68H300.587C301.027 68 301.247 68.22 301.247 68.66V70.04C301.247 70.48 301.027 70.7 300.587 70.7H286.727C286.327 70.7 286.127 70.88 286.127 71.24V85.76C286.127 86.12 286.327 86.3 286.727 86.3H302.267C302.747 86.3 302.987 86.52 302.987 86.96V88.34C302.987 88.78 302.747 89 302.267 89ZM320.414 89H318.674C318.234 89 318.014 88.76 318.014 88.28V53.66C318.014 53.3 317.814 53.12 317.414 53.12H308.714C308.234 53.12 307.994 52.9 307.994 52.46V51.08C307.994 50.64 308.234 50.42 308.714 50.42H330.314C330.794 50.42 331.034 50.64 331.034 51.08V52.46C331.034 52.9 330.794 53.12 330.314 53.12H321.614C321.214 53.12 321.014 53.3 321.014 53.66V88.28C321.014 88.76 320.814 89 320.414 89Z" fill="#E4661D"/>
<rect width="38" height="41" transform="translate(0 34)" fill="black"/>
<path d="M34.8333 54.5C34.8333 63.9348 27.7445 71.5833 19 71.5833M34.8333 54.5C34.8333 45.0651 27.7445 37.4166 19 37.4166M34.8333 54.5H28.5M19 71.5833C10.2555 71.5833 3.16667 63.9348 3.16667 54.5M19 71.5833V64.75M3.16667 54.5C3.16667 45.0651 10.2555 37.4166 19 37.4166M3.16667 54.5H9.5M19 37.4166V44.25" stroke="white" stroke-width="4" stroke-linecap="round" stroke-linejoin="round"/>
<g clip-path="url(#clip0_58_22)">
<rect width="19" height="20" transform="translate(9 44)" fill="black"/>
<path d="M18.5 62.3333C22.8722 62.3333 26.4167 58.6023 26.4167 54C26.4167 49.3976 22.8722 45.6666 18.5 45.6666C14.1277 45.6666 10.5833 49.3976 10.5833 54C10.5833 58.6023 14.1277 62.3333 18.5 62.3333Z" stroke="white" stroke-width="1.6" stroke-linecap="round" stroke-linejoin="round"/>
<path d="M18.5 59C21.1233 59 23.25 56.7614 23.25 54C23.25 51.2385 21.1233 49 18.5 49C15.8766 49 13.75 51.2385 13.75 54C13.75 56.7614 15.8766 59 18.5 59Z" stroke="white" stroke-width="1.6" stroke-linecap="round" stroke-linejoin="round"/>
<path d="M18.5 55.6666C19.3744 55.6666 20.0833 54.9204 20.0833 54C20.0833 53.0795 19.3744 52.3333 18.5 52.3333C17.6255 52.3333 16.9167 53.0795 16.9167 54C16.9167 54.9204 17.6255 55.6666 18.5 55.6666Z" stroke="white" stroke-width="1.6" stroke-linecap="round" stroke-linejoin="round"/>
</g>
<path fill-rule="evenodd" clip-rule="evenodd" d="M292.312 28.3207C293.073 29.4508 291.813 29.8538 287.341 29.91C285.006 29.9393 281.367 30.1553 279.254 30.3903C277.141 30.6248 274.639 30.8139 273.694 30.8105C271.314 30.8012 271.498 32.2777 274.32 35.8459C275.684 37.5701 275.731 37.7358 275.189 38.9587C274.874 39.6691 274.374 40.3629 274.076 40.5007C273.321 40.851 270.512 37.405 269.506 34.8941C268.691 32.8592 268.615 32.803 266.712 32.803C265.049 32.803 264.63 33.0048 263.922 34.1466C262.498 36.441 262.257 36.7117 261.635 36.7117C260.666 36.7117 260.486 35.2909 261.22 33.4308C261.594 32.4815 261.821 31.6089 261.724 31.4916C261.627 31.3738 259.142 32.2782 256.202 33.5007C253.261 34.7231 250.695 35.6031 250.498 35.456C250.052 35.1233 250.02 29.5299 250.462 29.2001C250.639 29.0677 253.035 28.8488 255.786 28.7135C260.103 28.5014 260.953 28.3216 261.983 27.4011C263.158 26.3521 263.368 26.3375 274.425 26.5334C284.327 26.7093 285.765 26.8334 286.438 27.5692C286.859 28.0295 287.85 28.4057 288.641 28.4057C289.761 28.4057 290.243 28.1081 290.819 27.062C291.497 25.8323 291.573 25.8015 291.718 26.6956C291.805 27.2331 292.073 27.9645 292.312 28.3207ZM266.516 32.3144C265.465 32.3144 265.129 31.5771 266.011 31.2058C266.661 30.9317 267.527 31.3157 267.527 31.8781C267.527 32.118 267.072 32.3144 266.516 32.3144Z" fill="white"/>
<path d="M306.118 31.7745C306.406 32.3364 305.393 32.803 303.888 32.803C303.108 32.803 302.708 32.5543 302.708 32.0701C302.708 31.5424 303.154 31.3372 304.301 31.3372C305.178 31.3372 305.996 31.5341 306.118 31.7745Z" fill="white"/>
<path fill-rule="evenodd" clip-rule="evenodd" d="M321.704 29.9608C320.448 29.8504 319.549 29.3926 318.588 28.3729C316.908 26.5906 314.675 26.4308 313.048 27.9767C311.959 29.012 311.958 29.0193 312.166 34.2062C312.281 37.062 312.383 39.4458 312.393 39.5035C312.404 39.5611 313.091 40.1655 313.922 40.8471C315.716 42.3202 317.988 42.5186 318.318 41.2311C318.438 40.7611 318.706 39.9945 318.912 39.5279C319.489 38.2224 319.363 37.6889 318.478 37.6889C318.033 37.6889 317.669 37.4436 317.669 37.1431C317.669 36.8206 318.095 36.6961 318.712 36.8387C319.999 37.1358 320.956 35.2762 320.132 34.0772C319.27 32.822 320.417 31.3372 322.248 31.3372C322.523 31.3372 322.756 31.3187 322.948 31.286C323.063 30.9053 323.037 30.5861 322.872 30.1903C322.565 30.0848 322.173 30.0019 321.704 29.9608ZM314.248 32.0095C313.395 31.6142 313.021 29.8367 313.683 29.3291C314.498 28.7062 315.488 28.8063 316.009 29.5651C316.889 30.8467 315.599 32.6364 314.248 32.0095ZM317.265 33.2916C316.82 33.2916 316.456 33.0717 316.456 32.803C316.456 32.5342 316.82 32.3144 317.265 32.3144C317.71 32.3144 318.074 32.5342 318.074 32.803C318.074 33.0717 317.71 33.2916 317.265 33.2916Z" fill="white"/>
<path fill-rule="evenodd" clip-rule="evenodd" d="M301.494 34.4979C301.494 39.9364 301.378 41.5199 300.989 41.3621C300.711 41.2492 299.71 40.918 298.765 40.6258L297.046 40.0942V34.2639V28.4335L298.361 27.9752C301.621 26.8378 301.494 26.5744 301.494 34.4979ZM299.219 33.6409C298.626 33.8759 298.175 32.4292 298.48 31.2683C298.611 30.769 298.991 30.36 299.323 30.36C300.047 30.36 299.952 33.3512 299.219 33.6409Z" fill="white"/>
<path d="M307.156 31.3372C307.156 31.6059 307.076 31.8258 306.977 31.8258C306.879 31.8258 306.687 31.6059 306.549 31.3372C306.412 31.0685 306.492 30.8486 306.727 30.8486C306.963 30.8486 307.156 31.0685 307.156 31.3372Z" fill="white"/>
<path d="M323.718 29.547C323.882 29.0296 323.817 28.8532 323.538 29.0614C323.45 29.127 323.359 29.1572 323.276 29.1551C322.922 29.3862 322.611 29.6624 322.747 29.9242C322.795 30.0173 322.837 30.1056 322.872 30.1903C323.866 30.5319 323.976 31.1115 322.948 31.286C322.899 31.4507 322.822 31.6269 322.72 31.8258C322.084 33.0546 322.634 33.0883 323.777 31.8908C324.796 30.8232 324.88 30.36 324.054 30.36C323.666 30.36 323.549 30.0781 323.718 29.547Z" fill="white"/>
<path d="M324.054 28.6719C324.203 28.4921 322.876 28.5796 322.955 28.8669C323.006 29.0495 323.13 29.1514 323.276 29.1551C323.609 28.9372 323.981 28.7594 324.054 28.6719Z" fill="white"/>
<path d="M322.948 31.286C323.063 30.9053 323.037 30.5861 322.872 30.1903C323.866 30.5319 323.976 31.1115 322.948 31.286Z" fill="white"/>
<defs>
<clipPath id="clip0_58_22">
<rect width="19" height="20" fill="white" transform="translate(9 44)"/>
</clipPath>
</defs>
</svg>
